<?xml version="1.0" encoding="UTF-8"?><svg id="Calque_2" xmlns="http://www.w3.org/2000/svg" viewBox="0 0 84.48 268.57"><defs><style>.cls-1{fill:#df7a56;}.cls-2,.cls-3{fill:#fff;}.cls-4{fill:none;}.cls-4,.cls-3{stroke-width:.75px;}.cls-4,.cls-3,.cls-5{stroke:#fff;stroke-miterlimit:10;}.cls-5{fill:#2b2f3d;stroke-width:.5px;}</style></defs><g id="Calque_2-2"><g id="corps"><rect class="cls-5" x="10.16" y="49.38" width="63.18" height="162.35" rx="12" ry="12"/><path class="cls-1" d="M73.02,59.4s-18.9,14.66-28.73,19.55c-9.83,4.88-33.8,11.1-33.8,11.1l-.06,23.46s27.93-6.57,36.85-11.28,25.77-19.3,25.77-19.3l-.03-23.53Z"/><path class="cls-1" d="M73.08,112.04s-18.93,14.66-28.77,19.55-33.85,11.1-33.85,11.1l-.06,23.46s27.97-6.57,36.91-11.28,25.81-19.3,25.81-19.3l-.03-23.53Z"/><path class="cls-1" d="M73.07,160.25s-18.94,14.66-28.78,19.55-33.86,11.1-33.86,11.1l-.06,23.46s27.97-6.57,36.92-11.28,25.81-19.3,25.81-19.3l-.03-23.53Z"/></g><g id="bas"><rect class="cls-3" x="9.77" y="223.27" width="62.59" height="8.92" rx="4.46" ry="4.46"/><path class="cls-4" d="M64.15,235.21H17.15c-.38,0-.7,.32-.68,.7,.54,9.31,11.6,17.48,13.68,21.08s1.77,3.07,1.77,3.07l2.68,4.65c2.69,4.65,9.4,4.65,12.08,0l2.68-4.65s-.68,1.25,1.77-3.07,13.16-11.8,13.68-21.08c.02-.38-.3-.7-.68-.7Z"/><rect class="cls-2" x="1.23" y="200.45" width="81.05" height="18.33" rx="9.17" ry="9.17"/></g><g id="haut"><path class="cls-4" d="M71.76,41.99c0,16.94-61.36,16.94-61.36,0S24.14,11.31,41.08,11.31s30.68,13.74,30.68,30.68Z"/><rect class="cls-2" x="1.23" y="41.95" width="81.05" height="18.33" rx="9.17" ry="9.17"/></g></g><g id="rayons"><g><line class="cls-4" x1="42.24" y1="8.68" x2="42.24"/><line class="cls-4" x1="64.74" y1="17.66" x2="70.88" y2="11.52"/><line class="cls-4" x1="19.71" y1="17.66" x2="13.57" y2="11.52"/><line class="cls-4" x1="75.8" y1="35.82" x2="84.48" y2="35.82"/><line class="cls-4" y1="35.7" x2="8.68" y2="35.7"/></g></g></svg>