<svg xmlns="http://www.w3.org/2000/svg" viewBox="0 0 595.28 595.28"><defs><style>.cls-1{fill:#fff;fill-rule:evenodd;}</style></defs><g id="Calque_2" data-name="Calque 2"><g id="Calque_1-2" data-name="Calque 1"><path class="cls-1" d="M297.64,0C461.91,0,595.28,133.37,595.28,297.64S461.91,595.28,297.64,595.28,0,461.91,0,297.64,133.37,0,297.64,0Zm0,111.61c-50.52,0-56.86.22-76.7,1.12s-33.32,4-45.16,8.65a95.18,95.18,0,0,0-54.4,54.41c-4.6,11.83-7.74,25.35-8.65,45.15s-1.12,26.18-1.12,76.7.22,56.85,1.12,76.7,4,33.32,8.65,45.15a95.18,95.18,0,0,0,54.4,54.41c11.84,4.59,25.36,7.74,45.16,8.64s26.18,1.12,76.7,1.12,56.85-.21,76.7-1.12,33.32-4.05,45.15-8.64a95.16,95.16,0,0,0,54.41-54.41c4.59-11.83,7.74-25.35,8.64-45.15s1.12-26.18,1.12-76.7-.21-56.86-1.12-76.7-4.05-33.32-8.64-45.15a95.16,95.16,0,0,0-54.41-54.41c-11.83-4.6-25.35-7.74-45.15-8.65S348.16,111.61,297.64,111.61Zm0,33.52c49.67,0,55.55.19,75.17,1.09,18.14.82,28,3.85,34.54,6.4a61.6,61.6,0,0,1,35.3,35.31c2.55,6.55,5.58,16.4,6.41,34.54.89,19.61,1.08,25.5,1.08,75.17s-.19,55.55-1.08,75.17c-.83,18.14-3.86,28-6.41,34.54a61.54,61.54,0,0,1-35.3,35.3c-6.56,2.55-16.4,5.58-34.54,6.41-19.61.89-25.5,1.08-75.17,1.08s-55.56-.19-75.17-1.08c-18.14-.83-28-3.86-34.54-6.41a61.6,61.6,0,0,1-35.31-35.3c-2.55-6.56-5.58-16.4-6.4-34.54-.9-19.62-1.09-25.5-1.09-75.17s.19-55.56,1.09-75.17c.82-18.14,3.85-28,6.4-34.54a61.65,61.65,0,0,1,35.31-35.31c6.55-2.55,16.4-5.58,34.54-6.4C242.08,145.32,248,145.13,297.64,145.13Zm0,57a95.53,95.53,0,1,0,95.52,95.53,95.53,95.53,0,0,0-95.52-95.53Zm0,157.54a62,62,0,1,1,62-62A62,62,0,0,1,297.64,359.65ZM419.26,198.34A22.32,22.32,0,1,1,396.94,176,22.32,22.32,0,0,1,419.26,198.34Z"/></g></g></svg>