<svg xmlns="http://www.w3.org/2000/svg" viewBox="0 0 595.28 595.28"><defs><style>.cls-1{fill:#fff;fill-rule:evenodd;}</style></defs><g id="Calque_2" data-name="Calque 2"><g id="Calque_1-2" data-name="Calque 1"><path class="cls-1" d="M297.64,0C461.91,0,595.28,133.37,595.28,297.64S461.91,595.28,297.64,595.28,0,461.91,0,297.64,133.37,0,297.64,0ZM245.21,455.94c131.71,0,203.73-109.14,203.73-203.72,0-3.12,0-6.24-.15-9.21a146.53,146.53,0,0,0,35.78-37.12,145.7,145.7,0,0,1-41.13,11.29,71.54,71.54,0,0,0,31.48-39.65,144.71,144.71,0,0,1-45.44,17.37,71.64,71.64,0,0,0-123.83,49,65.47,65.47,0,0,0,1.93,16.34A203.11,203.11,0,0,1,160,185.4a71.57,71.57,0,0,0,22.28,95.48A70.4,70.4,0,0,1,149.89,272v.89a71.67,71.67,0,0,0,57.46,70.23,71.14,71.14,0,0,1-18.86,2.53A68.4,68.4,0,0,1,175,344.28,71.49,71.49,0,0,0,241.8,394a143.91,143.91,0,0,1-89,30.59,130.51,130.51,0,0,1-17.07-1,199.47,199.47,0,0,0,109.43,32.37Z"/></g></g></svg>