<?xml version="1.0" encoding="UTF-8"?><svg id="Calque_2" xmlns="http://www.w3.org/2000/svg" viewBox="0 0 426.38 84.49"><defs><style>.cls-1{fill:#fff;}</style></defs><g id="Calque_2-2"><g><path class="cls-1" d="M46.36,41.27c0,5.65-1.9,10.18-5.7,13.57-3.8,3.4-8.62,5.1-14.47,5.1-3.85,0-6.85-.8-9-2.4-2.15-1.6-3.93-3.2-5.33-4.8h-.45c-.7,.7-1.44,1.69-2.21,2.96-.78,1.27-1.51,2.51-2.21,3.71h-.9c.05-2,.09-3.89,.11-5.66,.03-1.77,.06-3.91,.11-6.41V12.77l-.08-3.08c0-1.35-.21-2.29-.64-2.81s-1.34-.86-2.74-1.01l-2.85-.15v-1.2H20.78V21.47l-.15,5.93c.55-1,1.43-2,2.64-3,1.22-1,3.51-1.5,6.88-1.5,4.75,0,8.64,1.69,11.66,5.06s4.54,7.81,4.54,13.31h0Zm-15.15,.07c0-.7-.05-2.04-.15-4.01-.1-1.97-.15-3.19-.15-3.64,0-2.65-.4-4.79-1.19-6.41-.79-1.62-2.09-2.44-3.87-2.44-1.54,0-2.66,.44-3.35,1.31-.7,.88-1.14,1.88-1.34,3s-.32,2.75-.37,4.88-.07,4.24-.07,6.34v5.03c0,1.35,.07,2.75,.22,4.2,0,2.65,.41,4.84,1.23,6.56s2.07,2.59,3.76,2.59,2.88-.9,3.72-2.7,1.27-4,1.27-6.6c0-1,.03-2.19,.07-3.56,.05-1.37,.12-2.89,.22-4.54h0Z"/><path class="cls-1" d="M87.27,55.52c1.18,0,2.01-.74,2.48-2.22s.7-3.25,.7-5.31h1.05c0,4.41-.79,7.32-2.36,8.73-1.57,1.4-2.99,2.29-4.24,2.67s-2.85,.56-4.8,.56c-2.15,0-4.06-.55-5.74-1.65-1.68-1.1-2.69-2.58-3.04-4.43-.8,2.03-2.14,3.55-4.01,4.56s-4.31,1.52-7.31,1.52c-3.2,0-5.8-.88-7.8-2.63s-3-4.18-3-7.29c0-2.5,.62-4.52,1.88-6.05,1.25-1.53,2.52-2.47,3.83-2.82,1.3-.35,3.3-.65,6-.9s4.69-.54,5.96-.86c1.27-.33,2.19-.68,2.74-1.05,.55-.38,.83-1.01,.83-1.92l-.07-6.84c0-1.95-.25-3.36-.74-4.21-.5-.85-1.54-1.28-3.12-1.28-.99,0-1.82,.23-2.49,.68s-1,1.03-1,1.73c0,.55,.53,1.24,1.6,2.07s1.6,2.07,1.6,3.73c0,1.56-.69,2.94-2.07,4.15s-3.62,1.81-6.73,1.81c-1.71,0-3.2-.46-4.48-1.39s-1.92-2.17-1.92-3.73c0-3.11,1.74-5.6,5.22-7.46,3.48-1.86,7.63-2.79,12.44-2.79,4.06,0,7.79,.84,11.2,2.52s5.11,4.28,5.11,7.8v17.25c0,1.61,.15,2.84,.44,3.69,.25,.91,.86,1.36,1.85,1.36h-.01Zm-16.84-2.25v-14.33l-.22-.07c-.45,.6-1.27,1.16-2.49,1.69-1.21,.52-2.05,1.04-2.52,1.54s-.84,1.46-1.11,2.89c-.27,1.42-.41,2.89-.41,4.39,0,2.25,.17,4.05,.52,5.4,.35,1.35,1.14,2.02,2.38,2.02,.94,0,1.77-.38,2.48-1.12,.72-.75,1.17-1.55,1.37-2.4h0Z"/><path class="cls-1" d="M91.05,59.2v-1.2l2.02-.08c1.45-.15,2.33-.5,2.62-1.05,.3-.55,.45-1.75,.45-3.6l.08-3.45V31.9l-.08-3.08c-.1-1.2-.25-2.1-.45-2.7-.2-.6-1.1-.97-2.7-1.12l-1.95-.15v-1.2h19.5v6.3c.34-.9,1.08-2.25,2.21-4.05s3.74-2.7,7.84-2.7c2.4,0,4.44,.84,6.11,2.51,1.67,1.68,2.51,3.66,2.51,5.96s-.79,4.21-2.36,5.74c-1.58,1.53-3.51,2.29-5.81,2.29-1.9,0-3.54-.66-4.91-1.99-1.38-1.32-2.06-2.84-2.06-4.54,0-1.25,.23-2.4,.68-3.45,.5-.95,1-1.92,1.5-2.92-.25-.35-.5-.52-.75-.52-1.29,0-2.42,.78-3.37,2.32-.95,1.55-1.43,3-1.43,4.35v17.33l.07,3.75c0,1.4,.17,2.35,.52,2.85,.34,.5,1.21,.82,2.59,.97l2.22,.15v1.2h-25.05Z"/><path class="cls-1" d="M174.08,41.27c0,5.65-1.9,10.18-5.7,13.57-3.8,3.4-8.62,5.1-14.47,5.1-3.85,0-6.85-.8-9-2.4-2.15-1.6-3.93-3.2-5.33-4.8h-.45c-.7,.7-1.44,1.69-2.21,2.96-.78,1.27-1.51,2.51-2.21,3.71h-.9c.05-2,.09-3.89,.11-5.66,.03-1.77,.06-3.91,.11-6.41V12.77l-.08-3.08c0-1.35-.21-2.29-.64-2.81s-1.34-.86-2.74-1.01l-2.85-.15v-1.2h20.78V21.47l-.15,5.93c.55-1,1.43-2,2.64-3,1.22-1,3.51-1.5,6.88-1.5,4.75,0,8.64,1.69,11.66,5.06s4.54,7.81,4.54,13.31h.01Zm-15.15,.07c0-.7-.05-2.04-.15-4.01s-.15-3.19-.15-3.64c0-2.65-.4-4.79-1.19-6.41-.79-1.62-2.09-2.44-3.87-2.44-1.54,0-2.66,.44-3.35,1.31-.7,.88-1.14,1.88-1.34,3s-.32,2.75-.37,4.88c-.05,2.13-.07,4.24-.07,6.34v5.03c0,1.35,.07,2.75,.22,4.2,0,2.65,.41,4.84,1.23,6.56s2.07,2.59,3.76,2.59,2.88-.9,3.72-2.7,1.27-4,1.27-6.6c0-1,.03-2.19,.07-3.56,.05-1.37,.12-2.89,.22-4.54h0Z"/><path class="cls-1" d="M214.35,47.95c-1.4,3.75-3.66,6.69-6.76,8.81-3.11,2.13-6.76,3.19-10.97,3.19-5.91,0-10.77-1.64-14.58-4.91s-5.71-7.81-5.71-13.61c0-5.4,1.97-9.84,5.9-13.31s8.65-5.21,14.17-5.21,10.17,1.62,13.23,4.88c3.06,3.25,4.58,7.23,4.58,11.92h-23.03c0,1.8,.14,3.64,.41,5.51,.27,1.88,.79,3.69,1.56,5.44s1.86,3.16,3.28,4.24,3.19,1.61,5.33,1.61c3.07,0,5.5-.86,7.28-2.59s3.16-3.89,4.11-6.49l1.21,.52h0Zm-13.28-9.75c-.05-.55-.09-1.2-.11-1.95s-.04-1.7-.04-2.85c0-3.05-.37-5.36-1.12-6.94s-2.04-2.36-3.87-2.36c-1.59,0-2.69,.76-3.31,2.29-.62,1.53-1.05,3.86-1.3,7.01l-.15,4.8h9.9Z"/><path class="cls-1" d="M215.4,59.2v-1.2l2.02-.08c1.45-.15,2.33-.5,2.62-1.05,.3-.55,.45-1.75,.45-3.6l.08-3.45V31.9l-.08-3.08c-.1-1.2-.25-2.1-.45-2.7-.2-.6-1.1-.97-2.7-1.12l-1.95-.15v-1.2h19.5v6.3c.34-.9,1.08-2.25,2.21-4.05s3.74-2.7,7.84-2.7c2.4,0,4.44,.84,6.11,2.51,1.67,1.68,2.51,3.66,2.51,5.96s-.79,4.21-2.36,5.74c-1.58,1.53-3.51,2.29-5.81,2.29-1.9,0-3.54-.66-4.91-1.99-1.38-1.32-2.06-2.84-2.06-4.54,0-1.25,.23-2.4,.68-3.45,.5-.95,1-1.92,1.5-2.92-.25-.35-.5-.52-.75-.52-1.29,0-2.42,.78-3.37,2.32-.95,1.55-1.43,3-1.43,4.35v17.33l.07,3.75c0,1.4,.17,2.35,.52,2.85,.34,.5,1.21,.82,2.59,.97l2.22,.15v1.2h-25.05Z"/><path class="cls-1" d="M256.65,43.67h.98c1.3,4.05,2.6,7.03,3.9,8.92,1.3,1.9,2.71,3.33,4.24,4.28s3.39,1.42,5.59,1.42c1.25,0,2.33-.34,3.22-1.01,.9-.67,1.35-1.61,1.35-2.81,0-1.55-.35-2.7-1.05-3.45-.7-.75-1.8-1.56-3.3-2.44-1.5-.87-3.24-1.85-5.21-2.93-1.98-1.07-3.63-2.12-4.95-3.15-1.33-1.02-2.35-2.19-3.08-3.49-.73-1.3-1.09-2.8-1.09-4.5,0-3.7,1.4-6.56,4.2-8.59,2.8-2.02,6.23-3.04,10.28-3.04,1.9,0,3.7,.35,5.4,1.05,1.65,.85,3.32,1.68,5.02,2.48,.7,0,1.3-.42,1.8-1.27s.75-1.85,.75-3h1.05v15.07h-.98c-.4-1.2-.9-2.52-1.5-3.98-.6-1.45-1.46-2.91-2.59-4.39-1.12-1.47-2.31-2.61-3.56-3.41s-2.85-1.2-4.8-1.2c-1.4,0-2.54,.34-3.41,1.01-.88,.67-1.31,1.51-1.31,2.51,0,1.15,.31,2.05,.94,2.7,.62,.65,1.54,1.34,2.74,2.06,1.2,.73,2.84,1.65,4.91,2.77,2.07,1.12,3.94,2.24,5.59,3.34,1.65,1.1,3.02,2.46,4.12,4.09,1.1,1.63,1.65,3.49,1.65,5.59,0,3.85-1.46,6.75-4.39,8.7-2.92,1.95-6.46,2.92-10.61,2.92-2.15,0-4.25-.45-6.3-1.35-2-1-3.98-2.03-5.93-3.07-.65,0-1.23,.52-1.72,1.57-.5,1.05-.8,2.18-.9,3.38h-1.05v-16.78Z"/><path class="cls-1" d="M309.15,29.2c.94-2,2.26-3.55,3.95-4.65s4.1-1.65,7.23-1.65c3.47,0,6.54,.94,9.2,2.81,2.66,1.88,4,4.29,4,7.24v16.87l.08,3.45c0,1.8,.15,2.99,.45,3.56,.3,.57,1.17,.94,2.62,1.09l1.65,.08v1.2h-23.22v-1.2l.97-.08c1.34,0,2.16-.3,2.46-.9,.3-.6,.45-1.85,.45-3.75l.08-3.45v-15.3l-.08-3.08c0-2.1-.35-3.6-1.04-4.5-.7-.9-1.74-1.35-3.12-1.35-1.69,0-2.89,.55-3.61,1.65-.72,1.1-1.3,2.23-1.75,3.38v19.2l.08,3.45c0,1.95,.14,3.21,.41,3.79,.27,.58,1.1,.86,2.49,.86l.97,.08v1.2h-23.29v-1.2l1.72-.08c1.45-.15,2.33-.5,2.62-1.05,.3-.55,.45-1.75,.45-3.6l.08-3.45V12.77l-.08-3.08c0-1.35-.21-2.29-.64-2.81s-1.34-.86-2.74-1.01l-2.85-.15v-1.2h20.77V22.29c0,1.65-.03,3.04-.08,4.16-.05,1.12-.12,2.04-.23,2.74h0Z"/><path class="cls-1" d="M379.95,41.42c0,5.3-2.01,9.71-6.04,13.24s-8.76,5.29-14.21,5.29c-5.75,0-10.56-1.76-14.44-5.29s-5.81-7.94-5.81-13.24,1.96-9.71,5.89-13.24c3.92-3.52,8.71-5.29,14.36-5.29s10.31,1.75,14.29,5.25c3.98,3.5,5.96,7.93,5.96,13.27h0Zm-14.92-.07c0-.7-.05-2.1-.15-4.2-.1-2.1-.15-3.35-.15-3.75,0-2.7-.41-4.92-1.24-6.68-.82-1.75-2.11-2.62-3.86-2.62-1.6,0-2.83,.91-3.67,2.74-.85,1.83-1.28,4.01-1.28,6.56,0,.95-.04,2.11-.11,3.49-.08,1.38-.14,2.86-.19,4.46,0,.7,.05,2.14,.15,4.31,.1,2.18,.15,3.44,.15,3.79,0,2.7,.41,4.93,1.24,6.68,.82,1.75,2.09,2.62,3.79,2.62s2.9-.9,3.75-2.7,1.28-4,1.28-6.6c0-1,.02-2.19,.07-3.56,.05-1.37,.12-2.89,.23-4.54h-.01Z"/><path class="cls-1" d="M380.25,76.52v-1.2l2.62-.15c1.45-.15,2.37-.46,2.78-.94,.4-.48,.6-1.44,.6-2.89l.08-3.07V31.89l-.08-3.08c0-1.4-.21-2.35-.64-2.85-.42-.5-1.36-.82-2.81-.98l-2.4-.15v-1.2h20.25v4.42c.55-1.15,1.43-2.3,2.65-3.45,1.22-1.15,3.53-1.72,6.92-1.72,4.79,0,8.67,1.68,11.67,5.02,2.99,3.35,4.49,7.9,4.49,13.65s-1.5,10-4.5,13.35-6.9,5.02-11.7,5.02c-3.47,0-5.78-.47-6.92-1.42s-1.98-1.95-2.53-3l.07,4.42v7.12l.15,3.45c.15,1.7,.48,2.84,1,3.41s1.55,.96,3.08,1.16l3.57,.22v1.2h-28.35v.04Zm20.77-22.5c.2,1.25,.76,2.2,1.67,2.85,.92,.65,1.95,.97,3.09,.97,1.54,0,2.69-.75,3.46-2.25s1.25-3.15,1.45-4.95,.33-3.4,.41-4.8c.08-1.4,.11-2.92,.11-4.57v-4.88c-.15-1.45-.31-2.96-.48-4.54-.17-1.58-.66-3.1-1.45-4.58-.79-1.47-2.01-2.21-3.65-2.21-.99,0-1.95,.44-2.87,1.31-.92,.88-1.48,1.94-1.68,3.19-.1,1.2-.17,2.76-.22,4.69-.05,1.93-.07,3.84-.07,5.74v8.25c0,2.3,.07,4.23,.22,5.78h.01Z"/></g><g><path class="cls-1" d="M272.72,84.22l.37-6.03,.34-9.89c0-.36,.01-.83,.01-1.41h6.29c1.63,0,2.94,.13,3.93,.38s1.87,.78,2.64,1.57c.77,.79,1.32,1.69,1.64,2.69s.48,2.08,.48,3.24c0,1.38-.25,2.71-.74,3.99s-1.23,2.36-2.2,3.23-2.07,1.46-3.29,1.76c-1.22,.3-2.56,.46-4,.46h-5.47Zm1.09-.79c1.5,.03,2.68,.04,3.54,.04s1.73-.04,2.63-.13c.9-.08,1.71-.24,2.42-.46,.71-.22,1.41-.62,2.09-1.21,.68-.58,1.24-1.24,1.68-1.96s.76-1.52,.97-2.4c.21-.88,.32-1.76,.32-2.66s-.1-1.69-.3-2.49c-.14-.58-.36-1.11-.66-1.61-.33-.57-.71-1.05-1.15-1.44s-.89-.69-1.37-.89-1.07-.34-1.78-.43c-.64-.08-1.4-.13-2.26-.14h-5.47l-.66,15.77h0Z"/><path class="cls-1" d="M292.06,66.89c.21,0,.4,0,.57,0,.18,0,.37,0,.58,0l-.59,10.41-.03,.94v.22c0,1.02,.13,1.85,.39,2.49s.68,1.19,1.26,1.61c.58,.43,1.21,.72,1.91,.89,.69,.17,1.44,.25,2.25,.25s1.53-.08,2.25-.24c.54-.12,1.04-.3,1.5-.55,.36-.2,.69-.44,.99-.74s.55-.63,.76-1.01c.21-.38,.36-.77,.45-1.19,.17-.81,.28-1.81,.33-2.98l.25-5.22c.08-1.96,.13-3.59,.13-4.89,.22,0,.41,0,.56,0s.34,0,.56,0l-.33,5.78-.22,5.09c-.07,1.12-.19,2.05-.38,2.78-.12,.44-.29,.86-.52,1.26-.22,.36-.48,.69-.79,.97-.35,.32-.77,.61-1.26,.85-.53,.27-1.11,.47-1.73,.61-.81,.17-1.65,.25-2.51,.25-.95,0-1.81-.09-2.58-.28-.68-.16-1.3-.42-1.87-.76-.57-.35-1.03-.75-1.38-1.19-.3-.36-.53-.84-.71-1.42s-.27-1.29-.27-2.12c0-.75,.03-1.62,.08-2.63l.29-6.78c.02-.79,.04-1.59,.04-2.4h.02Z"/><path class="cls-1" d="M329.05,82.88c-.07,.3-.12,.64-.17,1.04-.86,.21-1.67,.36-2.43,.44-.76,.08-1.44,.13-2.04,.13-1.24,0-2.41-.2-3.52-.6-1.11-.4-2.06-.99-2.86-1.77s-1.38-1.71-1.75-2.79c-.37-1.08-.56-2.21-.56-3.39,0-1.32,.22-2.6,.65-3.83,.44-1.24,1.07-2.26,1.91-3.08s1.84-1.42,3.02-1.82c1.17-.39,2.42-.59,3.75-.59,.45,0,.93,.02,1.45,.06,.52,.04,.95,.09,1.28,.14s.78,.13,1.34,.25c.02,.35,.05,.71,.11,1.09-.93-.3-1.73-.51-2.41-.61s-1.32-.15-1.95-.15c-1.09,0-2.14,.17-3.15,.51-1.01,.34-1.9,.88-2.67,1.63-.77,.75-1.36,1.68-1.77,2.78s-.62,2.25-.62,3.42,.17,2.21,.51,3.24,.86,1.89,1.55,2.58,1.52,1.22,2.48,1.58c.96,.36,2,.54,3.14,.54,1.4,0,2.96-.28,4.69-.83l.02,.03Z"/><path class="cls-1" d="M340.81,66.63c1.21,0,2.35,.18,3.43,.55,1.08,.36,2.02,.96,2.82,1.78,.8,.82,1.38,1.76,1.72,2.82,.34,1.06,.51,2.19,.51,3.38,0,1.31-.19,2.57-.58,3.78-.39,1.21-.98,2.23-1.76,3.05-.79,.82-1.77,1.44-2.95,1.87-1.18,.42-2.42,.63-3.71,.63s-2.44-.2-3.58-.59-2.1-.97-2.87-1.74-1.33-1.69-1.7-2.77c-.36-1.08-.54-2.21-.54-3.4,0-1.33,.22-2.62,.66-3.87s1.08-2.28,1.91-3.1c.83-.82,1.83-1.43,2.99-1.82,1.16-.39,2.37-.58,3.64-.58h0Zm-.04,.8c-1.17,0-2.27,.18-3.3,.54s-1.93,.94-2.69,1.75-1.32,1.76-1.68,2.86-.53,2.24-.53,3.43c0,1.12,.19,2.2,.56,3.24,.37,1.03,.92,1.89,1.64,2.56,.72,.68,1.56,1.16,2.53,1.46s1.99,.44,3.07,.44,2.21-.17,3.22-.5,1.89-.88,2.63-1.65c.74-.77,1.28-1.7,1.63-2.77s.51-2.22,.51-3.42-.16-2.23-.48-3.26-.83-1.91-1.53-2.63-1.54-1.25-2.5-1.57-1.99-.48-3.07-.48h-.01Z"/><path class="cls-1" d="M352.37,84.22l.28-5.09,.25-7.63,.05-2.64c0-.7,.01-1.36,.01-1.97,.22,0,.41,0,.57,0s.36,0,.57,0l-.23,4.6-.3,9.46-.06,3.28c-.21,0-.4,0-.57,0s-.36,0-.57,0h0Z"/><path class="cls-1" d="M357.78,84.22l.29-5,.35-10.28,.04-2.04c.2,0,.46,0,.77,0s.58,0,.78,0c.42,.69,.77,1.24,1.05,1.66s.86,1.26,1.75,2.53l6.51,9.39c.66,.96,1.33,1.9,2.02,2.84l.54-14.46,.04-1.97c.22,0,.39,0,.52,0,.14,0,.31,0,.53,0l-.24,3.99-.41,10.84-.05,2.5c-.29,0-.55,0-.77,0s-.47,0-.76,0l-2.32-3.45-8.05-11.58-.94-1.28c-.03,.43-.05,.88-.06,1.33l-.46,11.88-.06,3.1c-.22,0-.4,0-.53,0s-.31,0-.53,0h-.01Z"/></g><g><path class="cls-1" d="M30.13,17.33l.27-4.02,.33-9.1L30.81,.01c.21,0,.39,.01,.55,.01,.17,0,.36,0,.57-.01l-.44,9.9-.24,6.63h2.6c1.86,.01,3.14,0,3.84-.01,.7-.02,1.39-.05,2.06-.09-.03,.34-.05,.64-.05,.9-1.79,0-3.3-.01-4.53-.01h-5.04Z"/><path class="cls-1" d="M41.87,17.33c.16-2.29,.31-5.25,.44-8.88s.2-6.44,.2-8.45c1.88,0,3.64,.01,5.29,.01h4.63c-.03,.33-.05,.63-.05,.89l-1.02-.08c-.26-.03-.72-.04-1.37-.05s-1.29,0-1.92,0c-2.01,0-3.53,0-4.57,.01l-.26,7.29c1.28,.03,2.45,.04,3.52,.04,1.27,0,2.84-.01,4.7-.04-.03,.25-.05,.53-.06,.84l-4.79-.04c-.56,0-1.69,.01-3.41,.04l-.25,7.63h3.64c1.43,.01,2.42,0,2.98,0,.55-.01,1.31-.04,2.26-.1-.04,.34-.06,.64-.06,.9-2.03,0-3.52-.01-4.46-.01h-5.44Z"/></g></g></svg>