<svg width="122" height="119" viewBox="0 0 122 119" fill="none" xmlns="http://www.w3.org/2000/svg">
<path d="M66.9795 26.8123H55.7111C52.4599 26.8123 49.8242 29.709 49.8242 33.2822V85.4139C49.8242 88.9871 52.4599 91.8838 55.7111 91.8838H66.9795C70.2307 91.8838 72.8663 88.9871 72.8663 85.4139V33.2822C72.8663 29.709 70.2307 26.8123 66.9795 26.8123Z" fill="#2B2F3D" stroke="white" stroke-width="0.5" stroke-miterlimit="10"/>
<path d="M72.7481 30.8236C72.7481 30.8236 65.8556 36.7005 62.2695 38.6577C58.6835 40.6148 49.9415 43.1058 49.9415 43.1058L49.9219 52.5088C49.9219 52.5088 60.1061 49.8723 63.3635 47.9906C66.6209 46.1035 72.7629 40.259 72.7629 40.259L72.753 30.829L72.7481 30.8236Z" fill="#DF7A56"/>
<path d="M72.7678 51.9265C72.7678 51.9265 65.8655 57.8033 62.2745 59.7605C58.6835 61.7176 49.9317 64.2086 49.9317 64.2086L49.9121 73.6116C49.9121 73.6116 60.1111 70.9751 63.3734 69.0934C66.6357 67.2117 72.7825 61.3618 72.7825 61.3618L72.7727 51.9318L72.7678 51.9265Z" fill="#DF7A56"/>
<path d="M72.7678 71.25C72.7678 71.25 65.8606 77.1269 62.2745 79.0841C58.6884 81.0412 49.9268 83.5322 49.9268 83.5322L49.9072 92.9351C49.9072 92.9351 60.1062 90.2986 63.3685 88.417C66.6308 86.5353 72.7826 80.6854 72.7826 80.6854L72.7727 71.2554L72.7678 71.25Z" fill="#DF7A56"/>
<path d="M70.8743 96.5098H51.3055C50.4059 96.5098 49.6768 97.31 49.6768 98.2971C49.6768 99.2842 50.4059 100.084 51.3055 100.084H70.8743C71.7738 100.084 72.503 99.2842 72.503 98.2971C72.503 97.31 71.7738 96.5098 70.8743 96.5098Z" fill="white" stroke="white" stroke-width="0.75" stroke-miterlimit="10"/>
<path d="M69.5104 101.292H52.3699C52.2325 101.292 52.1148 101.422 52.1246 101.573C52.3208 105.304 56.3533 108.576 57.1137 110.021C57.8741 111.466 57.7613 111.251 57.7613 111.251L58.7375 113.111C59.7186 114.976 62.1666 114.976 63.1428 113.111L64.1191 111.251C64.1191 111.251 63.8738 111.752 64.7666 110.021C65.6594 108.291 69.5644 105.293 69.7557 101.573C69.7655 101.422 69.6478 101.292 69.5104 101.292Z" stroke="white" stroke-width="0.75" stroke-miterlimit="10"/>
<path d="M72.7825 87.3602H49.9072C48.0621 87.3602 46.5664 89.0041 46.5664 91.0319V91.0373C46.5664 93.0651 48.0621 94.709 49.9072 94.709H72.7825C74.6276 94.709 76.1233 93.0651 76.1233 91.0373V91.0319C76.1233 89.0041 74.6276 87.3602 72.7825 87.3602Z" fill="white"/>
<path d="M72.2871 23.8469C72.2871 30.6403 49.9121 30.6403 49.9121 23.8469C49.9121 17.0534 54.9208 11.5486 61.102 11.5486C67.2832 11.5486 72.292 17.0534 72.292 23.8469H72.2871Z" stroke="white" stroke-width="0.75" stroke-miterlimit="10"/>
<path d="M72.7825 23.8307H49.9072C48.0621 23.8307 46.5664 25.4746 46.5664 27.5024V27.5078C46.5664 29.5356 48.0621 31.1795 49.9072 31.1795H72.7825C74.6276 31.1795 76.1233 29.5356 76.1233 27.5078V27.5024C76.1233 25.4746 74.6276 23.8307 72.7825 23.8307Z" fill="white"/>
<path d="M61.5186 10.4972V7.01959" stroke="white" stroke-width="0.75" stroke-miterlimit="10"/>
<path d="M69.7256 14.0988L71.9626 11.6348" stroke="white" stroke-width="0.75" stroke-miterlimit="10"/>
<path d="M53.3064 14.0988L51.0645 11.6348" stroke="white" stroke-width="0.75" stroke-miterlimit="10"/>
<path d="M73.7578 21.3775H76.9269" stroke="white" stroke-width="0.75" stroke-miterlimit="10"/>
<path d="M46.1143 21.3289H49.2833" stroke="white" stroke-width="0.75" stroke-miterlimit="10"/>
<path d="M121.5 59.5992C121.5 92.1168 94.4258 118.5 61 118.5C27.5742 118.5 0.5 92.1168 0.5 59.5992C0.5 27.0817 27.5742 0.698486 61 0.698486C94.4258 0.698486 121.5 27.0817 121.5 59.5992Z" stroke="white"/>
</svg>
